# xmcd
#
# Track frame offsets:
# 150
# 12815
# 36177
# 50952
# 66597
# 80942
# 99600
# 120242
# 135660
# 152982
# 168515
# 182780
# 201932
#
# Disc length: 2828 seconds
#
#
# Revision: 0
# Processed by: cddbd v1.5.2PL0 Copyright (c) Steve Scherf et al.
# Submitted via: Nero 7, 11, 10, 0 
#
DISCID=be0b0a0d
DTITLE=Lil' Ronnie and The Grand Dukes - Too Fast For Conditions
DYEAR=1998
DGENRE=Blues
TTITLE0=Unbekann
TTITLE1=Unbekann
TTITLE2=Unbekann
TTITLE3=Unbekann
TTITLE4=Unbekann
TTITLE5=Unbekann
TTITLE6=Unbekann
TTITLE7=Roll Roll Roll
TTITLE8=Unbekann
TTITLE9=Unbekann
TTITLE10=Unbekann
TTITLE11=Unbekann
TTITLE12=Unbekann
EXTD=
EXTT0=Unbekann
EXTT1=Unbekann
EXTT2=Unbekann
EXTT3=Unbekann
EXTT4=Unbekann
EXTT5=Unbekann
EXTT6=Unbekann
EXTT7=Roll Roll Roll
EXTT8=Unbekann
EXTT9=Unbekann
EXTT10=Unbekann
EXTT11=Unbekann
EXTT12=Unbekann
PLAYORDER=
